# xmcd
#
# Track frame offsets:
#	150
#	17842
#	35994
#	53359
#	70391
#	89616
#	109480
#	126065
#	142795
#	158208
#	185796
#	202283
#	219508
#	239433
#	257266
#	273651
#	289619
#	304666
#	322984
#	341182
#
# Disc length: 4799 seconds
# Revision: 0
# Processed by: cddbd v1.5.2PL0 Copyright (c) Steve Scherf et al.
# Submitted via: dBpowerAMP V12.0
#
DISCID=3812bd14
DTITLE=Various Artist - Eurodance forever 8
DYEAR=1998
DGENRE=Eurodance
TTITLE0=Backstreet Boys - Quit playin' Games (with my Heart)
TTITLE1=BG the Prince of Rap - Rock a Bit
TTITLE2=Blümchen - Boomerang
TTITLE3=Capitain Hollywood Project - All I want (Single Video Mix)
TTITLE4=Captain Hollywood Project - Impossible
TTITLE5=Corona - The Rhythm of the Night
TTITLE6=Unit feat. Charles Simmons - You
TTITLE7=Culture Beat - Got to get it (Radio Mix)
TTITLE8=Vertigo - Magic Eyes (Radio Mix)
TTITLE9=Das Modul - Computerliebe (Extended Version)
TTITLE10=Die Fantastischen Vier - Die Da
TTITLE11=Worlds Apart - Quand je reve de toi
TTITLE12=Disco Nation - Kick da Disco Nation
TTITLE13=Masterboy - Everybody needs Somebody (Single Edit)
TTITLE14=DJ Quicksilver - I have a Dream
TTITLE15=N'Sync - Tearin' up my Heart (Radio Edit)
TTITLE16=Sequential One - My Love is hot (Radio Mix)
TTITLE17=Snap! - Exterminate
TTITLE18=Worlds Apart - Together Baby
TTITLE19=Celine Dion - Think Twice (Radio Edit)
EXTD=
EXTT0=
EXTT1=
EXTT2=
EXTT3=
EXTT4=
EXTT5=
EXTT6=
EXTT7=
EXTT8=
EXTT9=
EXTT10=
EXTT11=
EXTT12=
EXTT13=
EXTT14=
EXTT15=
EXTT16=
EXTT17=
EXTT18=
EXTT19=
PLAYORDER=
